<?xml version="1.0" standalone="no"?>
<!DOCTYPE svg PUBLIC "-//W3C//DTD SVG 20010904//EN"
 "http://www.w3.org/TR/2001/REC-SVG-20010904/DTD/svg10.dtd">
<svg version="1.0" xmlns="http://www.w3.org/2000/svg"
 width="70.000000pt" height="70.000000pt" viewBox="0 0 70.000000 70.000000"
 preserveAspectRatio="xMidYMid meet">
<metadata>
Created by potrace 1.16, written by Peter Selinger 2001-2019
</metadata>
<g transform="translate(0.000000,70.000000) scale(0.015556,-0.024138)"
fill="#000000" stroke="none">
<path d="M960 1940 l0 -330 465 0 465 0 0 330 0 330 -465 0 -465 0 0 -330z
m450 220 c0 -19 -7 -20 -110 -20 -103 0 -110 -1 -110 -20 0 -18 -7 -20 -60
-20 -53 0 -60 2 -60 19 0 12 -8 21 -22 23 -12 2 -23 9 -26 16 -3 9 13 12 57
12 48 0 61 -3 61 -15 0 -8 7 -15 15 -15 8 0 15 9 15 20 0 19 7 20 120 20 113
0 120 -1 120 -20z m428 -292 c-4 -10 -81 -14 -331 -16 -287 -2 -327 0 -327 13
0 13 42 15 331 15 260 0 330 -3 327 -12z"/>
<path d="M1932 2021 c-8 -5 -12 -22 -10 -45 l3 -36 520 0 520 0 0 42 0 43
-510 2 c-280 2 -516 -1 -523 -6z"/>
<path d="M3007 2023 c-4 -3 -7 -24 -7 -45 l0 -38 125 0 125 0 0 39 c0 26 -5
41 -16 45 -21 8 -219 8 -227 -1z"/>
<path d="M3293 2024 c-7 -3 -13 -23 -13 -44 l0 -37 89 -7 c49 -4 123 -6 163
-5 l73 2 3 -136 c2 -130 3 -136 24 -139 32 -5 35 -28 4 -28 l-26 0 0 -471 0
-471 50 4 50 3 0 -207 0 -208 295 0 c276 0 298 1 335 20 21 11 50 34 63 52 30
39 77 224 77 299 0 44 -4 55 -31 80 -27 26 -38 29 -93 29 -33 0 -101 -5 -151
-10 -49 -6 -155 -14 -235 -20 -80 -6 -166 -13 -192 -16 l-48 -7 -2 459 -3 459
-23 3 c-28 4 -24 26 6 30 21 3 22 7 22 139 0 146 -6 169 -58 208 -24 18 -44
20 -197 22 -93 1 -176 0 -182 -3z"/>
<path d="M4300 1581 c-36 -10 -77 -21 -92 -25 l-28 -6 0 -100 c0 -60 4 -100
10 -100 6 0 10 12 10 26 0 16 5 24 13 22 7 -3 12 -24 12 -58 0 -34 -5 -55 -12
-57 -8 -3 -13 5 -13 21 0 14 -4 26 -10 26 -6 0 -10 -53 -10 -140 l0 -140 39 0
c67 0 100 11 145 51 51 45 67 76 106 207 31 101 39 206 20 243 -14 25 -62 49
-97 48 -15 0 -57 -9 -93 -18z"/>
<path d="M1337 1583 c-4 -3 -7 -229 -7 -502 0 -474 1 -497 20 -528 42 -70 27
-68 502 -68 l428 0 -4 -25 c-3 -14 -8 -52 -11 -85 -28 -287 -27 -283 -71 -287
-49 -4 -71 -34 -48 -66 15 -22 15 -22 383 -22 355 0 369 1 386 20 15 17 16 24
7 45 -10 21 -18 25 -55 25 l-43 0 -17 157 c-10 87 -20 176 -23 198 l-6 40 185
-2 184 -2 6 47 c3 26 4 48 3 49 -1 2 -393 3 -869 3 l-867 0 0 505 0 505 -38 0
c-21 0 -42 -3 -45 -7z"/>
<path d="M1340 413 c-11 -16 -26 -18 -165 -15 -144 3 -155 2 -175 -18 -26 -26
-28 -66 -2 -54 9 5 89 9 177 9 143 0 161 2 167 18 6 15 22 17 107 17 71 0 102
-4 108 -13 4 -7 25 -18 46 -24 35 -11 37 -10 37 12 0 27 -18 44 -51 47 -13 2
-29 10 -35 17 -8 11 -39 16 -107 19 -84 3 -97 1 -107 -15z"/>
</g>
</svg>
